<svg xmlns="http://www.w3.org/2000/svg" width="49" height="44.739" viewBox="0 0 49 44.739">
  <path id="ic_add_a_photo_24px" d="M6.391,7.391V1h4.261V7.391h6.391v4.261H10.652v6.391H6.391V11.652H0V7.391Zm6.391,12.783V13.783h6.391V7.391H34.087l3.9,4.261h6.753A4.273,4.273,0,0,1,49,15.913V41.478a4.273,4.273,0,0,1-4.261,4.261H10.652a4.273,4.273,0,0,1-4.261-4.261v-21.3ZM27.7,39.348A10.652,10.652,0,1,0,17.043,28.7,10.656,10.656,0,0,0,27.7,39.348ZM20.878,28.7A6.817,6.817,0,1,0,27.7,21.878,6.81,6.81,0,0,0,20.878,28.7Z" transform="translate(0 -1)" fill="#443aca" opacity="0.3"/>
</svg>
