<svg xmlns="http://www.w3.org/2000/svg" width="20" height="15.455" viewBox="0 0 20 15.455">
  <path id="ic_import_contacts_24px" d="M19.182,4.955A10.732,10.732,0,0,0,16,4.5a8.455,8.455,0,0,0-5,1.364A8.455,8.455,0,0,0,6,4.5,8.455,8.455,0,0,0,1,5.864V19.182a.489.489,0,0,0,.455.455c.091,0,.136-.045.227-.045a11.1,11.1,0,0,1,4.318-1,8.455,8.455,0,0,1,5,1.364,10.95,10.95,0,0,1,5-1.364,9.253,9.253,0,0,1,4.318.955.41.41,0,0,0,.227.045A.489.489,0,0,0,21,19.136V5.864A6.2,6.2,0,0,0,19.182,4.955Zm0,12.273A10.564,10.564,0,0,0,16,16.773a10.95,10.95,0,0,0-5,1.364V7.682a10.95,10.95,0,0,1,5-1.364,10.564,10.564,0,0,1,3.182.455Z" transform="translate(-1 -4.5)" fill="#020044" opacity="0.22"/>
</svg>
