<svg xmlns="http://www.w3.org/2000/svg" xmlns:xlink="http://www.w3.org/1999/xlink" width="159" height="126.449" viewBox="0 0 159 126.449">
  <defs>
    <linearGradient id="linear-gradient" x1="0.5" x2="0.5" y2="1" gradientUnits="objectBoundingBox">
      <stop offset="0" stop-color="#ff4893"/>
      <stop offset="1" stop-color="#fe67ad"/>
    </linearGradient>
  </defs>
  <g id="logo_home" transform="translate(-124 -115.139)">
    <path id="路径_22" data-name="路径 22" d="M12,0A12,12,0,0,1,24,12V114.449a12,12,0,0,1-24,0V12A12,12,0,0,1,12,0Z" transform="translate(124 115.139)" fill="#00cd00"/>
    <path id="路径_21" data-name="路径 21" d="M12,0A12,12,0,0,1,24,12V69.167a12,12,0,0,1-24,0V12A12,12,0,0,1,12,0Z" transform="translate(170 160.422)" fill="url(#linear-gradient)"/>
    <path id="路径_20" data-name="路径 20" d="M12,0A12,12,0,0,1,24,12V89.167a12,12,0,1,1-24,0V12A12,12,0,0,1,12,0Z" transform="translate(259 140.422)" fill="#ff9a14"/>
    <path id="路径_19" data-name="路径 19" d="M11,0A11,11,0,0,1,22,11V51.789a11,11,0,0,1-22,0V11A11,11,0,0,1,11,0Z" transform="translate(215 178.799)" fill="#008afd"/>
  </g>
</svg>
