<svg xmlns="http://www.w3.org/2000/svg" xmlns:xlink="http://www.w3.org/1999/xlink" width="39.769" height="30.731" viewBox="0 0 39.769 30.731">
  <defs>
    <linearGradient id="linear-gradient" x1="0.5" x2="0.5" y2="1" gradientUnits="objectBoundingBox">
      <stop offset="0" stop-color="#ff875e"/>
      <stop offset="1" stop-color="#fe67ad"/>
    </linearGradient>
  </defs>
  <path id="ic_import_contacts_24px" d="M37.154,5.4a21.339,21.339,0,0,0-6.327-.9c-3.525,0-7.321.723-9.942,2.712C18.263,5.223,14.467,4.5,10.942,4.5S3.621,5.223,1,7.212V33.694a.972.972,0,0,0,.9.9c.181,0,.271-.09.452-.09a22.064,22.064,0,0,1,8.587-1.988c3.525,0,7.321.723,9.942,2.712a21.774,21.774,0,0,1,9.942-2.712,18.4,18.4,0,0,1,8.587,1.9.815.815,0,0,0,.452.09.972.972,0,0,0,.9-.9V7.212A12.33,12.33,0,0,0,37.154,5.4Zm0,24.4a21.006,21.006,0,0,0-6.327-.9,21.774,21.774,0,0,0-9.942,2.712V10.827a21.774,21.774,0,0,1,9.942-2.712,21.006,21.006,0,0,1,6.327.9Z" transform="translate(-1 -4.5)" fill="url(#linear-gradient)"/>
</svg>
